<svg width="28" height="28" viewBox="0 0 28 28" fill="none" xmlns="http://www.w3.org/2000/svg">
<g clip-path="url(#clip0_20_1311)">
<path d="M17.3935 13.9327C20.1382 13.9327 22.3632 11.7077 22.3632 8.96298C22.3632 6.2183 20.1382 3.99329 17.3935 3.99329C14.6488 3.99329 12.4238 6.2183 12.4238 8.96298C12.4238 11.7077 14.6488 13.9327 17.3935 13.9327Z" fill="white"/>
<path d="M17.3939 23.8721C17.3939 23.8721 27.3333 23.8721 27.3333 21.3872C27.3333 18.4054 22.4879 15.1751 17.3939 15.1751C12.3 15.1751 7.45455 18.4054 7.45455 21.3872C7.45455 23.8721 17.3939 23.8721 17.3939 23.8721ZM6.21212 11.4479V7.72058H3.72727V11.4479H0V13.9327H3.72727V17.66H6.21212V13.9327H9.93939V11.4479H6.21212Z" fill="white"/>
</g>
<defs>
<clipPath id="clip0_20_1311">
<rect width="27.3333" height="27.3333" fill="white" transform="translate(0 0.622253)"/>
</clipPath>
</defs>
</svg>
