<svg width="16" height="17" viewBox="0 0 16 17" fill="none" xmlns="http://www.w3.org/2000/svg">
<path d="M5.61111 4.88889V2V4.88889ZM11.3889 4.88889V2V4.88889ZM4.88889 7.77778H12.1111H4.88889ZM3.44444 15H13.5556C13.9386 15 14.306 14.8478 14.5769 14.5769C14.8478 14.306 15 13.9386 15 13.5556V4.88889C15 4.5058 14.8478 4.1384 14.5769 3.86751C14.306 3.59663 13.9386 3.44444 13.5556 3.44444H3.44444C3.06135 3.44444 2.69395 3.59663 2.42307 3.86751C2.15218 4.1384 2 4.5058 2 4.88889V13.5556C2 13.9386 2.15218 14.306 2.42307 14.5769C2.69395 14.8478 3.06135 15 3.44444 15Z" stroke="white" stroke-width="1.5" stroke-linecap="round" stroke-linejoin="round"/>
</svg>
