<svg width="27" height="16" viewBox="0 0 27 16" fill="none" xmlns="http://www.w3.org/2000/svg">
<path d="M0.425047 7.6C0.425047 7.31667 0.521047 7.07933 0.713047 6.888C0.904381 6.696 1.14171 6.6 1.42505 6.6L23.6 6.6L18.725 1.725C18.525 1.525 18.425 1.28733 18.425 1.012C18.425 0.737333 18.525 0.499999 18.725 0.299999C18.925 0.0999994 19.1584 -3.4277e-07 19.425 -3.31114e-07C19.6917 -3.19457e-07 19.925 0.0999994 20.125 0.299999L26.725 6.9C26.825 7 26.896 7.10833 26.938 7.225C26.9794 7.34167 27 7.46667 27 7.6C27 7.73333 26.9794 7.86267 26.938 7.988C26.896 8.11267 26.825 8.21667 26.725 8.3L20.125 14.9C19.925 15.1 19.6917 15.2 19.425 15.2C19.1584 15.2 18.925 15.1 18.725 14.9C18.525 14.7 18.425 14.4623 18.425 14.187C18.425 13.9123 18.525 13.675 18.725 13.475L23.6 8.6L1.42505 8.6C1.14171 8.6 0.90438 8.50433 0.713047 8.313C0.521047 8.121 0.425047 7.88333 0.425047 7.6Z" fill="#54A630"/>
</svg>
