
<svg width="18" height="18" viewBox="0 0 18 18" fill="none" xmlns="http://www.w3.org/2000/svg">
<path d="M15.1538 2.23096H2.84615C1.82655 2.23096 1 3.05751 1 4.07711V15.1541C1 16.1737 1.82655 17.0002 2.84615 17.0002H15.1538C16.1734 17.0002 17 16.1737 17 15.1541V4.07711C17 3.05751 16.1734 2.23096 15.1538 2.23096Z" stroke="white" stroke-linejoin="round"/>
<path d="M3.54538 2.24658H14.4546C15.8492 2.24658 16.9843 3.39897 16.9843 4.81555V7.13837H16.4001C16.395 6.83087 16.2401 6.52588 16.011 6.2968C15.7781 6.06384 15.4666 5.90761 15.1538 5.90761H2.84615C2.53338 5.90761 2.22191 6.06384 1.98895 6.2968C1.75987 6.52588 1.60498 6.83087 1.59989 7.13837H1.01562V4.81555C1.01562 3.39897 2.15077 2.24658 3.54538 2.24658Z" fill="white" stroke="white" stroke-width="0.03125"/>
<path d="M11.4459 8.0769C11.4459 8.57809 11.0396 8.98438 10.5384 8.98438C10.0372 8.98438 9.63092 8.57809 9.63092 8.0769C9.63092 7.57572 10.0372 7.16943 10.5384 7.16943C11.0396 7.16943 11.4459 7.57572 11.4459 8.0769Z" fill="white" stroke="white" stroke-width="0.03125"/>
<path d="M14.5228 8.0769C14.5228 8.57809 14.1166 8.98438 13.6154 8.98438C13.1142 8.98438 12.708 8.57809 12.708 8.0769C12.708 7.57572 13.1142 7.16943 13.6154 7.16943C14.1166 7.16943 14.5228 7.57572 14.5228 8.0769Z" fill="white" stroke="white" stroke-width="0.03125"/>
<path d="M11.4459 11.154C11.4459 11.6552 11.0396 12.0615 10.5384 12.0615C10.0372 12.0615 9.63092 11.6552 9.63092 11.154C9.63092 10.6529 10.0372 10.2466 10.5384 10.2466C11.0396 10.2466 11.4459 10.6529 11.4459 11.154Z" fill="white" stroke="white" stroke-width="0.03125"/>
<path d="M14.5228 11.154C14.5228 11.6552 14.1166 12.0615 13.6154 12.0615C13.1142 12.0615 12.708 11.6552 12.708 11.154C12.708 10.6529 13.1142 10.2466 13.6154 10.2466C14.1166 10.2466 14.5228 10.6529 14.5228 11.154Z" fill="white" stroke="white" stroke-width="0.03125"/>
<path d="M5.29205 11.154C5.29205 11.6552 4.88578 12.0615 4.38461 12.0615C3.88345 12.0615 3.47717 11.6552 3.47717 11.154C3.47717 10.6529 3.88345 10.2466 4.38461 10.2466C4.88578 10.2466 5.29205 10.6529 5.29205 11.154Z" fill="white" stroke="white" stroke-width="0.03125"/>
<path d="M8.36896 11.154C8.36896 11.6552 7.96268 12.0615 7.4615 12.0615C6.96033 12.0615 6.55405 11.6552 6.55405 11.154C6.55405 10.6529 6.96033 10.2466 7.4615 10.2466C7.96268 10.2466 8.36896 10.6529 8.36896 11.154Z" fill="white" stroke="white" stroke-width="0.03125"/>
<path d="M5.29205 14.2307C5.29205 14.7319 4.88578 15.1382 4.38461 15.1382C3.88345 15.1382 3.47717 14.7319 3.47717 14.2307C3.47717 13.7295 3.88345 13.3232 4.38461 13.3232C4.88578 13.3232 5.29205 13.7295 5.29205 14.2307Z" fill="white" stroke="white" stroke-width="0.03125"/>
<path d="M8.36896 14.2307C8.36896 14.7319 7.96268 15.1382 7.4615 15.1382C6.96033 15.1382 6.55405 14.7319 6.55405 14.2307C6.55405 13.7295 6.96033 13.3232 7.4615 13.3232C7.96268 13.3232 8.36896 13.7295 8.36896 14.2307Z" fill="white" stroke="white" stroke-width="0.03125"/>
<path d="M11.4459 14.2307C11.4459 14.7319 11.0396 15.1382 10.5384 15.1382C10.0372 15.1382 9.63092 14.7319 9.63092 14.2307C9.63092 13.7295 10.0372 13.3232 10.5384 13.3232C11.0396 13.3232 11.4459 13.7295 11.4459 14.2307Z" fill="white" stroke="white" stroke-width="0.03125"/>
<path d="M4.077 1V2.2308" stroke="white" stroke-linecap="round" stroke-linejoin="round"/>
<path d="M13.9231 1V2.2308" stroke="white" stroke-linecap="round" stroke-linejoin="round"/>
</svg>

