<svg width="17" height="15" viewBox="0 0 17 15" fill="none" xmlns="http://www.w3.org/2000/svg">
<path d="M14.8334 2.9585H12.7861L10.6431 0.815455C10.5697 0.741797 10.4825 0.683381 10.3864 0.643572C10.2903 0.603763 10.1874 0.583346 10.0834 0.583497H6.91671C6.81273 0.583346 6.70974 0.603763 6.61369 0.643572C6.51763 0.683381 6.43039 0.741797 6.357 0.815455L4.21396 2.9585H2.16671C1.2935 2.9585 0.583374 3.66862 0.583374 4.54183V13.2502C0.583374 14.1234 1.2935 14.8335 2.16671 14.8335H14.8334C15.7066 14.8335 16.4167 14.1234 16.4167 13.2502V4.54183C16.4167 3.66862 15.7066 2.9585 14.8334 2.9585ZM8.50004 12.4585C6.35462 12.4585 4.54171 10.6456 4.54171 8.50016C4.54171 6.35475 6.35462 4.54183 8.50004 4.54183C10.6455 4.54183 12.4584 6.35475 12.4584 8.50016C12.4584 10.6456 10.6455 12.4585 8.50004 12.4585Z" fill="#99A0B2"/>
<path d="M8.5 6.125C7.21275 6.125 6.125 7.21275 6.125 8.5C6.125 9.78725 7.21275 10.875 8.5 10.875C9.78725 10.875 10.875 9.78725 10.875 8.5C10.875 7.21275 9.78725 6.125 8.5 6.125Z" fill="#99A0B2"/>
</svg>
