
<svg width="28" height="28" viewBox="0 0 28 28" fill="none" xmlns="http://www.w3.org/2000/svg">
<g clip-path="url(#clip0_20_1263)">
<path d="M3.91045 26.4188C3.91045 24.5774 3.91045 22.9648 3.91045 21.4049C3.7993 21.3157 3.76194 21.2646 3.71365 21.2528C0.917452 20.5658 0.00178503 19.4023 0.00178503 16.5259C0.00178503 12.9954 -0.00368163 9.46483 0.00451837 5.93428C0.00998503 3.28659 1.57254 1.70763 4.23663 1.70034C10.5415 1.68577 16.8446 1.68303 23.1504 1.69943C25.7717 1.70672 27.3187 3.2875 27.326 5.9033C27.3342 9.09766 27.3379 12.292 27.3278 15.4873C27.316 19.0989 25.2842 21.1799 21.6607 21.2236C18.3825 21.2628 15.1053 21.2491 11.8262 21.2218C11.1146 21.2154 10.5488 21.4031 9.98483 21.8386C8.0387 23.3438 6.05794 24.8061 3.91045 26.4188Z" fill="white"/>
<path d="M13.0186 9.49945C10.892 9.49945 8.76457 9.50401 6.63804 9.49672C6.03124 9.4949 5.46453 9.2817 5.34517 8.65303C5.26682 8.23938 5.35246 7.68634 5.58753 7.3547C5.78433 7.07863 6.30457 6.90825 6.6836 6.90461C10.8538 6.87181 15.0221 6.87545 19.1922 6.88274C20.2309 6.88365 20.8104 7.36836 20.824 8.1747C20.8395 9.00381 20.23 9.49581 19.1458 9.49945C17.1031 9.50765 15.0604 9.50218 13.0158 9.50218C13.0186 9.50127 13.0186 9.50036 13.0186 9.49945Z" fill="#3B3C54"/>
<path d="M11.7769 14.7101C10.1259 14.711 8.47591 14.7156 6.82497 14.7092C5.82093 14.7046 5.21777 14.2053 5.21777 13.3999C5.21686 12.5899 5.79451 12.1116 6.83317 12.108C10.0786 12.0998 13.3221 12.0979 16.5675 12.1061C17.6918 12.1089 18.2212 12.5635 18.1956 13.4473C18.1729 14.2691 17.6153 14.7055 16.5611 14.7083C14.9658 14.7128 13.3713 14.7101 11.7769 14.7101Z" fill="#3B3C54"/>
</g>
<defs>
<clipPath id="clip0_20_1263">
<rect width="27.3333" height="27.3333" fill="white" transform="translate(0 0.222229)"/>
</clipPath>
</defs>
</svg>
