<svg width="18" height="18" viewBox="0 0 18 18" fill="none" xmlns="http://www.w3.org/2000/svg">
<g clip-path="url(#clip0_138_1021)">
<path d="M11.3995 1.50614L7.33589 5.56991C5.98142 4.2159 4.62651 2.86059 3.27181 1.50614C1.70467 -0.0609627 -0.724507 2.36904 0.841323 3.93658C2.19623 5.29015 3.55158 6.64568 4.90496 8.00013C3.55096 9.35519 2.19642 10.7097 0.841323 12.0637C-0.724507 13.6303 1.70489 16.0597 3.27181 14.4941C4.62629 13.1392 5.9812 11.7841 7.33567 10.4301L11.3993 14.4941C12.9665 16.0608 15.3963 13.6306 13.8298 12.0637C12.4749 10.7088 11.1204 9.35435 9.76507 7.99969C11.1202 6.64481 12.4747 5.28993 13.8298 3.93527C15.3965 2.36904 12.9667 -0.0609626 11.3993 1.50702" fill="white"/>
</g>
<defs>
<clipPath id="clip0_138_1021">
<rect width="17" height="17" fill="white" transform="translate(0.335754 0.5)"/>
</clipPath>
</defs>
</svg>
