<svg width="18" height="18" viewBox="0 0 18 18" fill="none" xmlns="http://www.w3.org/2000/svg">
<path d="M14.1474 12.2554L12.3252 10.9825C12.1737 10.8768 12.0029 10.8019 11.8225 10.7622C11.6421 10.7225 11.4557 10.7187 11.2738 10.751C11.092 10.7834 10.9183 10.8513 10.7626 10.9508C10.607 11.0503 10.4725 11.1795 10.3668 11.331L9.94413 11.9368C9.23538 11.4615 8.44394 10.7977 7.68991 10.044C6.93616 9.29022 6.27241 8.49878 5.7971 7.79003L6.40291 7.36731C6.55498 7.2621 6.68461 7.1277 6.78426 6.97194C6.88392 6.81618 6.95161 6.64216 6.98341 6.46C7.016 6.27801 7.01225 6.09137 6.97238 5.91084C6.93251 5.73031 6.8573 5.55946 6.7511 5.40812L5.47844 3.58619C5.11985 3.07347 4.44203 2.84931 3.87138 3.06025C3.70579 3.12118 3.54697 3.19913 3.39747 3.29284L3.14575 3.47003C3.08303 3.51897 3.02482 3.5724 2.96857 3.62809C2.662 3.93522 2.44375 4.32362 2.32113 4.7829C1.7966 6.74912 3.09597 9.72165 5.5541 12.1798C7.61847 14.2442 10.0985 15.5267 12.0265 15.5267C12.3564 15.5267 12.668 15.4884 12.9515 15.4127C13.41 15.2901 13.7987 15.0724 14.1058 14.7653C14.1618 14.7091 14.2155 14.6508 14.2723 14.5769L14.4495 14.3237C14.5367 14.184 14.6126 14.0287 14.6736 13.8625C14.8882 13.2831 14.6719 12.6222 14.1474 12.2554Z" fill="#54A630"/>
<path d="M15.5126 2.47302H8.76257C8.68798 2.47302 8.61644 2.50265 8.5637 2.5554C8.51095 2.60814 8.48132 2.67968 8.48132 2.75427V6.69177C8.48132 6.76636 8.51095 6.8379 8.5637 6.89065C8.61644 6.94339 8.68798 6.97302 8.76257 6.97302H9.76101L10.4321 8.40234C10.4548 8.45065 10.4908 8.49151 10.5359 8.52012C10.5809 8.54874 10.6332 8.56394 10.6866 8.56394C10.74 8.56394 10.7923 8.54874 10.8374 8.52012C10.8824 8.49151 10.9184 8.45065 10.9411 8.40234L11.6125 6.97302H15.5126C15.5872 6.97302 15.6587 6.94339 15.7114 6.89065C15.7642 6.8379 15.7938 6.76636 15.7938 6.69177V2.75427C15.7938 2.67968 15.7642 2.60814 15.7114 2.5554C15.6587 2.50265 15.5872 2.47302 15.5126 2.47302ZM14.0889 5.56677H10.1865C10.112 5.56677 10.0404 5.53714 9.98767 5.4844C9.93492 5.43165 9.90529 5.36011 9.90529 5.28552C9.90529 5.21093 9.93492 5.13939 9.98767 5.08665C10.0404 5.0339 10.112 5.00427 10.1865 5.00427H14.0889C14.1635 5.00427 14.235 5.0339 14.2878 5.08665C14.3405 5.13939 14.3701 5.21093 14.3701 5.28552C14.3701 5.36011 14.3405 5.43165 14.2878 5.4844C14.235 5.53714 14.1635 5.56677 14.0889 5.56677ZM14.0889 4.44177H10.1865C10.112 4.44177 10.0404 4.41214 9.98767 4.3594C9.93492 4.30665 9.90529 4.23511 9.90529 4.16052C9.90529 4.08593 9.93492 4.01439 9.98767 3.96165C10.0404 3.9089 10.112 3.87927 10.1865 3.87927H14.0889C14.1635 3.87927 14.235 3.9089 14.2878 3.96165C14.3405 4.01439 14.3701 4.08593 14.3701 4.16052C14.3701 4.23511 14.3405 4.30665 14.2878 4.3594C14.235 4.41214 14.1635 4.44177 14.0889 4.44177Z" fill="#54A630"/>
</svg>
