<svg width="33" height="33" viewBox="0 0 33 33" fill="none" xmlns="http://www.w3.org/2000/svg">
<g clip-path="url(#clip0_104_1125)">
<path fill-rule="evenodd" clip-rule="evenodd" d="M13.1785 16.5254C13.1641 16.513 13.1497 16.5016 13.1353 16.4903C13.1208 16.4789 13.1064 16.4675 13.092 16.4552C11.9173 15.4807 10.9735 14.2295 10.3552 12.8338C10.3349 12.7874 10.3148 12.7408 10.2947 12.6941L10.2947 12.6941C10.1679 12.4001 10.0403 12.1041 9.84826 11.8511C9.76759 11.7446 9.67565 11.6466 9.58365 11.5486L9.58364 11.5486C9.48292 11.4413 9.38212 11.3339 9.29596 11.2152C9.05279 10.8724 8.9415 10.4554 8.85083 10.0466C8.69833 9.36527 8.58704 8.60962 8.93326 8.00262C8.96945 7.93951 9.01 7.87858 9.05051 7.8177C9.13458 7.69138 9.21849 7.56529 9.26299 7.4204C9.31321 7.26172 9.30912 7.09578 9.30501 6.92938L9.3042 6.89599C9.27123 5.16997 9.68752 2.99799 11.0889 1.80878C12.4614 0.644332 14.2666 -0.0122153 16.0719 0.000172434C17.8772 0.0125601 19.6742 0.689754 21.0385 1.87897C21.2693 2.0813 21.4877 2.29602 21.6691 2.54378C21.9658 2.94844 22.1472 3.4233 22.2914 3.9023C22.4529 4.43418 22.5023 5.02122 22.552 5.61049V5.61052C22.6076 6.27016 22.6634 6.9326 22.8767 7.52363C22.9217 7.64935 22.9844 7.76825 23.0467 7.8866L23.0468 7.88663C23.093 7.9743 23.139 8.06167 23.1776 8.15127C23.5321 8.96473 23.2971 9.91446 22.9303 10.7238C22.6871 11.2606 22.3904 11.7726 22.0895 12.2846C21.9903 12.4546 21.8914 12.6266 21.7921 12.7994L21.7918 12.7999C20.8052 14.5158 19.7691 16.3176 17.8895 17.1654C16.752 17.6774 15.3918 17.7559 14.2584 17.2273C13.871 17.0456 13.5124 16.7979 13.1785 16.5254ZM2.68511 22.1618C2.95713 21.5631 3.37342 21.0263 3.93396 20.6877C4.40794 20.3986 4.96024 20.2706 5.50017 20.1467C7.60633 19.6595 9.53937 19.1268 11.3446 17.9004C11.8227 18.4001 12.2844 18.846 12.9809 19.0401C13.0734 19.0655 13.1669 19.0866 13.2603 19.1076L13.2604 19.1076C13.4252 19.1448 13.5897 19.1818 13.7475 19.2424C14.4015 19.4998 15.2041 19.4785 15.9431 19.4588C16.117 19.4542 16.2873 19.4497 16.4513 19.4489C17.3993 19.4448 18.3679 19.3622 19.2499 18.9823C19.4848 18.8791 19.7115 18.7593 19.93 18.6231C20.1484 18.4868 20.3669 18.3258 20.4946 18.0986C20.6688 17.791 21.2975 18.2385 21.7255 18.5431C21.8548 18.6351 21.9657 18.714 22.0403 18.7552C22.8646 19.2053 23.7466 19.5439 24.6616 19.7545C24.9578 19.8235 25.2617 19.8814 25.5666 19.9395C26.6663 20.1491 27.7787 20.3612 28.5854 21.1047C29.9579 22.3683 30.0156 24.4824 30.0032 26.2167C30.0016 26.3791 30.007 26.546 30.0125 26.7142C30.0344 27.3887 30.057 28.0854 29.6282 28.6075C28.9728 29.4045 27.963 29.8463 27.0109 30.1808C26.5452 30.346 23.0789 31.5641 22.947 30.9571C22.914 30.8043 22.9965 30.6515 23.0707 30.5153C23.3822 29.9633 23.0283 29.022 22.7968 28.4059C22.7771 28.3536 22.7583 28.3037 22.7409 28.2566C22.4689 27.5133 21.929 26.8898 21.2942 26.4232C20.5688 25.8864 19.6992 25.4363 18.8007 25.3248C18.2855 25.2629 17.7909 25.3578 17.288 25.4776L17.2693 25.4822C17.0402 25.5385 16.8043 25.5965 16.5997 25.7171C16.5709 25.7336 16.5425 25.7515 16.5141 25.7694C16.4573 25.8052 16.4005 25.841 16.34 25.8657C16.0339 25.9899 15.7085 25.8396 15.4008 25.6975C15.3604 25.6789 15.3204 25.6605 15.2808 25.6428C13.5992 24.8954 11.9175 25.4446 10.578 26.5223C9.92268 27.0467 9.44869 27.8147 9.17666 28.6034C8.97597 29.1861 9.01134 29.7647 9.04819 30.3675L9.04889 30.379C9.10187 31.2319 8.90475 31.1939 8.21202 31.0606C8.15015 31.0487 8.08432 31.036 8.01437 31.0231C6.58828 30.7589 5.19517 30.3088 3.8845 29.6811C3.19207 29.3508 2.31416 28.847 2.09159 28.046C1.64646 26.4438 1.98443 23.9085 2.58206 22.3848C2.60061 22.3476 2.6171 22.3105 2.63359 22.2733C2.65007 22.2361 2.66656 22.199 2.68511 22.1618ZM15.4581 27.319C14.7162 26.84 13.7229 26.7409 12.8326 26.9722C12.0124 27.1828 11.2788 27.6741 10.9078 28.405C10.5163 29.1648 10.4009 29.7222 10.4751 30.5935C10.5451 31.4152 10.982 31.9479 11.5219 32.5384C11.9788 33.04 12.4558 33.5184 12.9325 33.9965C13.3976 34.4629 13.8624 34.9291 14.3082 35.4164C14.363 35.4765 14.4216 35.5431 14.4836 35.6135C14.9247 36.115 15.5376 36.8118 16.1917 36.7213C16.7016 36.6539 17.0381 36.2269 17.3423 35.8409C17.3922 35.7775 17.4413 35.7153 17.4901 35.6559C18.1381 34.8717 18.8736 34.1575 19.6051 33.4471C19.8134 33.2449 20.0213 33.043 20.2268 32.8398C20.242 32.8279 20.2589 32.8156 20.2766 32.8028C20.3262 32.7669 20.3821 32.7264 20.4247 32.6746C20.4716 32.6187 20.5191 32.5632 20.5665 32.5076C20.8516 32.1733 21.1364 31.8395 21.3273 31.4359C21.6735 30.705 21.793 29.4827 21.3932 28.7519C20.8822 27.8269 20.3958 27.4016 19.4355 26.9928C19.4176 26.9854 19.3992 26.9774 19.3804 26.9692C19.3473 26.9548 19.313 26.9399 19.2788 26.9268C18.5782 26.6294 17.7044 26.774 17.0326 27.0961C16.8458 27.1856 16.7009 27.2734 16.5777 27.348C16.1952 27.5798 16.0224 27.6845 15.4581 27.319Z" fill="white"/>
</g>
<defs>
<clipPath id="clip0_104_1125">
<rect width="32.246" height="32.246" fill="white" transform="translate(0.724609)"/>
</clipPath>
</defs>
</svg>
