<svg width="19" height="19" viewBox="0 0 19 19" fill="none" xmlns="http://www.w3.org/2000/svg">
<path d="M9.49062 0C4.24662 0 0.00012207 4.256 0.00012207 9.5C0.00012207 14.744 4.24662 19 9.49062 19C14.7441 19 19.0001 14.744 19.0001 9.5C19.0001 4.256 14.7441 0 9.49062 0ZM6.17512 5.7C6.96362 5.7 7.60012 6.3365 7.60012 7.125C7.60012 7.9135 6.96362 8.55 6.17512 8.55C5.38662 8.55 4.75012 7.9135 4.75012 7.125C4.75012 6.3365 5.38662 5.7 6.17512 5.7ZM9.50012 15.2C7.33412 15.2 5.49112 13.623 4.75012 11.4H14.2501C13.5091 13.623 11.6661 15.2 9.50012 15.2ZM12.8251 8.55C12.0366 8.55 11.4001 7.9135 11.4001 7.125C11.4001 6.3365 12.0366 5.7 12.8251 5.7C13.6136 5.7 14.2501 6.3365 14.2501 7.125C14.2501 7.9135 13.6136 8.55 12.8251 8.55Z" fill="#99A0B2"/>
</svg>
