<svg width="18" height="15" viewBox="0 0 18 15" fill="none" xmlns="http://www.w3.org/2000/svg">
<path d="M14.5862 11.793V12.7241H1.86207C1.69745 12.7241 1.53958 12.6587 1.42318 12.5423C1.30677 12.4259 1.24138 12.268 1.24138 12.1034V4.65511C1.24138 4.4905 1.17599 4.33262 1.05958 4.21622C0.943182 4.09982 0.785307 4.03442 0.62069 4.03442C0.456073 4.03442 0.298198 4.09982 0.181796 4.21622C0.0653939 4.33262 0 4.4905 0 4.65511V12.7241C0 13.0533 0.130788 13.3691 0.363592 13.6019C0.596395 13.8347 0.912145 13.9655 1.24138 13.9655H14.5862V14.8965L16.1379 13.3448L14.5862 11.793Z" fill="#3C3D3F"/>
<path d="M3.41354 3.10345V2.17241H16.1377C16.3023 2.17241 16.4602 2.23781 16.5766 2.35421C16.693 2.47061 16.7584 2.62849 16.7584 2.7931V10.2414C16.7584 10.406 16.8238 10.5639 16.9402 10.6803C17.0566 10.7967 17.2144 10.8621 17.3791 10.8621C17.5437 10.8621 17.7016 10.7967 17.818 10.6803C17.9344 10.5639 17.9997 10.406 17.9997 10.2414V2.17241C17.9997 1.84318 17.869 1.52743 17.6362 1.29463C17.4034 1.06182 17.0876 0.931034 16.7584 0.931034H3.41354V0L1.86182 1.55172L3.41354 3.10345Z" fill="#3C3D3F"/>
<path d="M8.99981 11.4828C11.228 11.4828 13.0343 9.67648 13.0343 7.4483C13.0343 5.22012 11.228 3.41382 8.99981 3.41382C6.77163 3.41382 4.96533 5.22012 4.96533 7.4483C4.96533 9.67648 6.77163 11.4828 8.99981 11.4828Z" fill="#3C3D3F"/>
<path d="M9.00013 10.2415C10.5427 10.2415 11.7932 8.99097 11.7932 7.44838C11.7932 5.90579 10.5427 4.65527 9.00013 4.65527C7.45755 4.65527 6.20703 5.90579 6.20703 7.44838C6.20703 8.99097 7.45755 10.2415 9.00013 10.2415Z" fill="#E3E7E8"/>
</svg>
