<svg width="16" height="16" viewBox="0 0 16 16" fill="none" xmlns="http://www.w3.org/2000/svg">
<path d="M15.5535 6.54384H8.40482V9.63961H12.4887C12.3126 10.6403 11.7784 11.4866 10.9731 12.0537C10.2924 12.5332 9.4238 12.8167 8.40284 12.8167C6.4262 12.8167 4.75427 11.4095 4.15673 9.5187C4.00636 9.03922 3.9193 8.52638 3.9193 7.99896C3.9193 7.47153 4.00636 6.9587 4.15673 6.47922C4.75625 4.59049 6.42818 3.18332 8.40482 3.18332C9.51877 3.18332 10.518 3.58775 11.3055 4.37993L13.4819 2.08469C12.1662 0.792182 10.4507 0 8.40482 0C5.43887 0 2.87261 1.79283 1.62411 4.40704C1.10967 5.48691 0.816833 6.70853 0.816833 8.00104C0.816833 9.29355 1.10967 10.5131 1.62411 11.593C2.87261 14.2072 5.43887 16 8.40482 16C10.4547 16 12.1721 15.2829 13.4265 14.0612C14.861 12.6687 15.6901 10.6173 15.6901 8.18033C15.6901 7.61329 15.6426 7.06919 15.5535 6.54384Z" fill="#DD4B39"/>
</svg>
