<svg width="19" height="18" viewBox="0 0 19 18" fill="none" xmlns="http://www.w3.org/2000/svg">
<path fill-rule="evenodd" clip-rule="evenodd" d="M3.80561 2.17076C3.62854 1.99975 3.3914 1.90512 3.14525 1.90726C2.8991 1.9094 2.66363 2.00813 2.48957 2.1822C2.31551 2.35626 2.21677 2.59172 2.21464 2.83788C2.2125 3.08403 2.30712 3.32117 2.47813 3.49823L15.6214 16.6415C15.7985 16.8125 16.0356 16.9072 16.2818 16.905C16.5279 16.9029 16.7634 16.8041 16.9375 16.6301C17.1115 16.456 17.2103 16.2206 17.2124 15.9744C17.2145 15.7283 17.1199 15.4911 16.9489 15.314L15.566 13.9312C17.0283 12.7653 18.1095 11.1898 18.6716 9.40614C17.4756 5.5974 13.9175 2.8345 9.71351 2.8345C8.24187 2.8325 6.79054 3.17796 5.47762 3.84277L3.80654 2.17076H3.80561ZM7.80586 6.17008L9.22721 7.59237C9.54555 7.50783 9.88051 7.50839 10.1986 7.59399C10.5166 7.67959 10.8066 7.84724 11.0395 8.08014C11.2724 8.31304 11.4401 8.60303 11.5257 8.92109C11.6113 9.23914 11.6118 9.5741 11.5273 9.89244L12.9486 11.3138C13.372 10.5966 13.545 9.75894 13.4402 8.93268C13.3355 8.10642 12.9591 7.33841 12.3702 6.74949C11.7812 6.16056 11.0132 5.78413 10.187 5.67941C9.36072 5.57469 8.52309 5.74763 7.80586 6.17101V6.17008Z" fill="white"/>
<path d="M12.0174 15.6931L9.47882 13.1537C8.56601 13.0965 7.70544 12.7081 7.05863 12.0615C6.41182 11.4149 6.02324 10.5544 5.96581 9.64159L2.51757 6.19336C1.72448 7.13781 1.12565 8.22955 0.755432 9.40595C1.95147 13.2147 5.51049 15.9776 9.71352 15.9776C10.5087 15.9776 11.2804 15.879 12.0174 15.6931Z" fill="white"/>
</svg>
