<svg width="20" height="19" viewBox="0 0 20 19" fill="none" xmlns="http://www.w3.org/2000/svg">
<path d="M2.00012 19H3.00012V6H2.00012C1.46969 6 0.960981 6.21071 0.585908 6.58579C0.210836 6.96086 0.00012207 7.46957 0.00012207 8V17C0.00012207 17.5304 0.210836 18.0391 0.585908 18.4142C0.960981 18.7893 1.46969 19 2.00012 19ZM18.0001 6H11.0001L12.1221 2.632C12.2222 2.33141 12.2495 2.01135 12.2017 1.69816C12.1539 1.38496 12.0323 1.08761 11.8471 0.830595C11.6619 0.573576 11.4182 0.364242 11.1362 0.219836C10.8542 0.0754294 10.5419 8.21128e-05 10.2251 0H10.0001L5.00012 5.438V19H16.0001L19.9121 10.404L20.0001 10V8C20.0001 7.46957 19.7894 6.96086 19.4143 6.58579C19.0393 6.21071 18.5306 6 18.0001 6Z" fill="#99A0B2"/>
</svg>
