<svg width="28" height="28" viewBox="0 0 28 28" fill="none" xmlns="http://www.w3.org/2000/svg">
<g clip-path="url(#clip0_20_1299)">
<path d="M22.6425 14.9176C22.6425 14.3855 22.2356 13.9786 21.7035 13.9786C21.1715 13.9786 20.7646 14.3855 20.7646 14.9176C20.7646 18.5796 17.7911 21.553 14.1291 21.553C10.4671 21.553 7.49368 18.5796 7.49368 14.9176C7.49368 14.3855 7.08679 13.9786 6.5547 13.9786C6.02261 13.9786 5.61572 14.3855 5.61572 14.9176C5.61572 19.2682 8.87085 22.9302 13.1901 23.3997V25.9036H9.77853C9.24644 25.9036 8.83955 26.3105 8.83955 26.8426C8.83955 27.3747 9.24644 27.7816 9.77853 27.7816H18.4797C19.0118 27.7816 19.4187 27.3747 19.4187 26.8426C19.4187 26.3105 19.0118 25.9036 18.4797 25.9036H15.0681V23.3997C19.3874 22.9302 22.6425 19.2682 22.6425 14.9176Z" fill="white"/>
<path d="M14.1293 1.17712C11.2498 1.17712 8.90234 3.52457 8.90234 6.4041V14.8862C8.90234 17.797 11.2498 20.1132 14.1293 20.1445C17.0089 20.1445 19.3563 17.797 19.3563 14.9175V6.4041C19.3563 3.52457 17.0089 1.17712 14.1293 1.17712Z" fill="white"/>
</g>
<defs>
<clipPath id="clip0_20_1299">
<rect width="27.3333" height="27.3333" fill="white" transform="translate(0.222168 0.622253)"/>
</clipPath>
</defs>
</svg>
