<svg width="29" height="28" viewBox="0 0 29 28" fill="none" xmlns="http://www.w3.org/2000/svg">
<path d="M22.6446 25.2223C21.135 25.2223 19.9112 23.9985 19.9112 22.4889C19.9112 20.9793 21.135 19.7556 22.6446 19.7556C24.1541 19.7556 25.3779 20.9793 25.3779 22.4889C25.3779 23.9985 24.1541 25.2223 22.6446 25.2223ZM14.4446 25.2223C12.935 25.2223 11.7112 23.9985 11.7112 22.4889C11.7112 20.9793 12.935 19.7556 14.4446 19.7556C15.9541 19.7556 17.1779 20.9793 17.1779 22.4889C17.1779 23.9985 15.9541 25.2223 14.4446 25.2223ZM6.24456 25.2223C4.73499 25.2223 3.51123 23.9985 3.51123 22.4889C3.51123 20.9793 4.73499 19.7556 6.24456 19.7556C7.75414 19.7556 8.9779 20.9793 8.9779 22.4889C8.9779 23.9985 7.75414 25.2223 6.24456 25.2223ZM22.6446 17.0223C21.135 17.0223 19.9112 15.7985 19.9112 14.2889C19.9112 12.7793 21.135 11.5556 22.6446 11.5556C24.1541 11.5556 25.3779 12.7793 25.3779 14.2889C25.3779 15.0138 25.0899 15.7091 24.5773 16.2217C24.0647 16.7343 23.3695 17.0223 22.6446 17.0223ZM14.4446 17.0223C12.935 17.0223 11.7112 15.7985 11.7112 14.2889C11.7112 12.7793 12.935 11.5556 14.4446 11.5556C15.9541 11.5556 17.1779 12.7793 17.1779 14.2889C17.1779 15.0138 16.8899 15.7091 16.3773 16.2217C15.8647 16.7343 15.1695 17.0223 14.4446 17.0223ZM6.24456 17.0223C4.73499 17.0223 3.51123 15.7985 3.51123 14.2889C3.51123 12.7793 4.73499 11.5556 6.24456 11.5556C7.75414 11.5556 8.9779 12.7793 8.9779 14.2889C8.9779 15.0138 8.68992 15.7091 8.17732 16.2217C7.66472 16.7343 6.96949 17.0223 6.24456 17.0223ZM22.6446 8.82226C21.135 8.82226 19.9112 7.5985 19.9112 6.08892C19.9112 4.57935 21.135 3.35559 22.6446 3.35559C24.1541 3.35559 25.3779 4.57935 25.3779 6.08892C25.3779 6.81385 25.0899 7.50908 24.5773 8.02168C24.0647 8.53428 23.3695 8.82226 22.6446 8.82226ZM14.4446 8.82226C12.935 8.82226 11.7112 7.5985 11.7112 6.08892C11.7112 4.57935 12.935 3.35559 14.4446 3.35559C15.9541 3.35559 17.1779 4.57935 17.1779 6.08892C17.1779 6.81385 16.8899 7.50908 16.3773 8.02168C15.8647 8.53428 15.1695 8.82226 14.4446 8.82226ZM6.24456 8.82226C4.73499 8.82226 3.51123 7.5985 3.51123 6.08892C3.51123 4.57935 4.73499 3.35559 6.24456 3.35559C7.75414 3.35559 8.9779 4.57935 8.9779 6.08892C8.9779 6.81385 8.68992 7.50908 8.17732 8.02168C7.66472 8.53428 6.96949 8.82226 6.24456 8.82226Z" fill="white"/>
</svg>
