<svg width="28" height="28" viewBox="0 0 28 28" fill="none" xmlns="http://www.w3.org/2000/svg">
<g clip-path="url(#clip0_20_1255)">
<path d="M21.6947 0.871308C21.6947 0.500146 21.4799 0.148519 21.1478 -0.00775957C20.7961 -0.183573 20.4055 -0.124969 20.1124 0.109449L11.4585 7.00525L21.6947 17.2415V0.871308Z" fill="white"/>
<path d="M27.2701 25.5751L1.87482 0.179862C1.49389 -0.201067 0.874634 -0.201067 0.493705 0.179862C0.112775 0.560791 0.112775 1.18005 0.493705 1.56097L6.63936 7.70859H6.06699C5.46141 7.70859 4.93397 7.98207 4.58235 8.41184C4.28932 8.74393 4.11351 9.19323 4.11351 9.66207V17.476C4.11351 18.5504 4.99258 19.4295 6.06699 19.4295H10.5991L20.1125 27.0285C20.2884 27.1653 20.5032 27.2434 20.7181 27.2434C20.8549 27.2434 21.0111 27.2044 21.1479 27.1457C21.48 26.9895 21.6949 26.6378 21.6949 26.2667V22.7641L25.887 26.9563C26.0785 27.1477 26.3285 27.2434 26.5786 27.2434C26.8286 27.2434 27.0787 27.1477 27.2701 26.9582C27.651 26.5753 27.651 25.958 27.2701 25.5751Z" fill="white"/>
</g>
<defs>
<clipPath id="clip0_20_1255">
<rect width="27.3333" height="27.3333" fill="white" transform="translate(0.222168 0.222229)"/>
</clipPath>
</defs>
</svg>
