<svg width="34" height="24" viewBox="0 0 34 24" fill="none" xmlns="http://www.w3.org/2000/svg">
<g clip-path="url(#clip0_10_588)">
<path d="M4.42505 11.6C4.42505 11.3167 4.52105 11.0793 4.71305 10.888C4.90438 10.696 5.14171 10.6 5.42505 10.6L27.6 10.6L22.725 5.725C22.525 5.525 22.425 5.28733 22.425 5.012C22.425 4.73733 22.525 4.5 22.725 4.3C22.925 4.1 23.1584 4 23.425 4C23.6917 4 23.925 4.1 24.125 4.3L30.725 10.9C30.825 11 30.896 11.1083 30.938 11.225C30.9794 11.3417 31 11.4667 31 11.6C31 11.7333 30.9794 11.8627 30.938 11.988C30.896 12.1127 30.825 12.2167 30.725 12.3L24.125 18.9C23.925 19.1 23.6917 19.2 23.425 19.2C23.1584 19.2 22.925 19.1 22.725 18.9C22.525 18.7 22.425 18.4623 22.425 18.187C22.425 17.9123 22.525 17.675 22.725 17.475L27.6 12.6L5.42505 12.6C5.14171 12.6 4.90438 12.5043 4.71305 12.313C4.52105 12.121 4.42505 11.8833 4.42505 11.6Z" fill="#54A630"/>
</g>
<defs>
<clipPath id="clip0_10_588">
<rect width="24" height="34" fill="white" transform="translate(34) rotate(90)"/>
</clipPath>
</defs>
</svg>
