<svg width="16" height="17" viewBox="0 0 16 17" fill="none" xmlns="http://www.w3.org/2000/svg">
<path d="M12.218 15.4999C11.6079 15.4999 10.7508 15.2793 9.46741 14.5624C7.90678 13.6874 6.69966 12.8795 5.14747 11.3317C3.65091 9.83637 2.92264 8.86824 1.90337 7.01384C0.751881 4.92006 0.948171 3.82255 1.16759 3.35348C1.42889 2.79285 1.8146 2.45753 2.31314 2.12472C2.5963 1.93923 2.89597 1.78022 3.20832 1.64971C3.23958 1.63627 3.26865 1.62346 3.29459 1.6119C3.44931 1.54221 3.68373 1.4369 3.98067 1.5494C4.17883 1.62377 4.35574 1.77596 4.63267 2.0494C5.2006 2.60941 5.9767 3.85661 6.26301 4.46912C6.45523 4.88194 6.58245 5.15444 6.58276 5.46007C6.58276 5.81789 6.40272 6.09383 6.18424 6.39164C6.1433 6.44758 6.10266 6.50102 6.06328 6.5529C5.82542 6.8654 5.77322 6.95571 5.8076 7.11697C5.8773 7.44103 6.3971 8.40573 7.25133 9.25793C8.10557 10.1101 9.04264 10.597 9.36802 10.6664C9.53618 10.7023 9.62838 10.6479 9.95095 10.4017C9.99721 10.3664 10.0447 10.3298 10.0944 10.2933C10.4276 10.0454 10.6908 9.87012 11.0402 9.87012H11.0421C11.3462 9.87012 11.6066 10.002 12.0379 10.2195C12.6006 10.5033 13.8855 11.2692 14.4491 11.8376C14.7232 12.1139 14.876 12.2902 14.9507 12.488C15.0632 12.7858 14.9573 13.0192 14.8882 13.1755C14.8766 13.2014 14.8638 13.2299 14.8504 13.2614C14.7188 13.5732 14.5588 13.8721 14.3725 14.1546C14.0402 14.6514 13.7036 15.0361 13.1416 15.2977C12.853 15.4342 12.5372 15.5033 12.218 15.4999Z" fill="white"/>
</svg>
