<svg width="26" height="27" viewBox="0 0 26 27" fill="none" xmlns="http://www.w3.org/2000/svg">
<path d="M13 0.499939C5.824 0.499939 0 6.32394 0 13.4999C0 20.6759 5.824 26.4999 13 26.4999C20.176 26.4999 26 20.6759 26 13.4999C26 6.32394 20.176 0.499939 13 0.499939ZM13 4.39994C15.158 4.39994 16.9 6.14194 16.9 8.29994C16.9 10.4579 15.158 12.1999 13 12.1999C10.842 12.1999 9.1 10.4579 9.1 8.29994C9.1 6.14194 10.842 4.39994 13 4.39994ZM13 22.8599C9.75 22.8599 6.877 21.1959 5.2 18.6739C5.239 16.0869 10.4 14.6699 13 14.6699C15.587 14.6699 20.761 16.0869 20.8 18.6739C19.123 21.1959 16.25 22.8599 13 22.8599Z" fill="#7B7C7E"/>
</svg>
