<svg width="18" height="18" viewBox="0 0 18 18" fill="none" xmlns="http://www.w3.org/2000/svg">
<path d="M12.6562 12.0938H12.375C12.5988 12.0938 12.8134 12.1826 12.9716 12.3409C13.1299 12.4991 13.2188 12.7137 13.2188 12.9375C13.2188 13.1613 13.1299 13.3759 12.9716 13.5341C12.8134 13.6924 12.5988 13.7812 12.375 13.7812H12.0938C12.3175 13.7812 12.5321 13.8701 12.6904 14.0284C12.8486 14.1866 12.9375 14.4012 12.9375 14.625C12.9375 14.8488 12.8486 15.0634 12.6904 15.2216C12.5321 15.3799 12.3175 15.4688 12.0938 15.4688H11.8125C12.0363 15.4688 12.2509 15.5576 12.4091 15.7159C12.5674 15.8741 12.6562 16.0887 12.6562 16.3125C12.6562 16.5363 12.5674 16.7509 12.4091 16.9091C12.2509 17.0674 12.0363 17.1562 11.8125 17.1562H4.78125V10.9688C4.93313 10.9688 7.26469 10.2684 7.875 8.4375C8.48531 6.60656 8.49375 5.90625 9.5625 5.90625C10.4062 5.90625 10.4062 7.52063 10.4062 8.4375C10.4062 9.35437 9.5625 10.4062 9.5625 10.4062H12.6562C12.88 10.4062 13.0946 10.4951 13.2529 10.6534C13.4111 10.8116 13.5 11.0262 13.5 11.25C13.5 11.4738 13.4111 11.6884 13.2529 11.8466C13.0946 12.0049 12.88 12.0938 12.6562 12.0938ZM1.6875 9.84375H4.5V17.7188H1.6875V9.84375ZM3.01387 6.6285L3.65625 5.34375L2.42494 4.85128C2.37327 4.83064 2.32899 4.79497 2.2978 4.74889C2.26662 4.70282 2.24997 4.64845 2.25 4.59281V4.49691C2.25 4.42313 2.27931 4.35238 2.33147 4.30022C2.38363 4.24806 2.45438 4.21875 2.52816 4.21875H3.9375L4.17403 3.0375C4.18665 2.97444 4.22072 2.9177 4.27046 2.87693C4.3202 2.83616 4.38253 2.81389 4.44684 2.81391H4.54809C4.61344 2.81389 4.6767 2.83688 4.72679 2.87884C4.77688 2.92081 4.8106 2.97907 4.82203 3.04341L5.03269 4.22606L6.47072 4.21875C6.50735 4.21864 6.54365 4.22576 6.57753 4.2397C6.61141 4.25365 6.6422 4.27414 6.66815 4.3C6.69409 4.32587 6.71468 4.3566 6.72872 4.39044C6.74277 4.42428 6.75 4.46055 6.75 4.49719V4.59197C6.75003 4.64761 6.73338 4.70197 6.7022 4.74805C6.67101 4.79413 6.62673 4.82979 6.57506 4.85044L5.34375 5.34375L5.98612 6.6285C6.00737 6.6709 6.01742 6.71803 6.01532 6.76541C6.01322 6.81279 5.99904 6.85885 5.97412 6.89921C5.94921 6.93956 5.91439 6.97288 5.87298 6.99599C5.83156 7.0191 5.78493 7.03124 5.7375 7.03125C5.66551 7.03131 5.59633 7.00337 5.54456 6.95334L4.5 5.94647L3.45572 6.95334C3.40389 7.00344 3.33458 7.03138 3.2625 7.03125C3.21507 7.03124 3.16844 7.0191 3.12702 6.99599C3.08561 6.97288 3.05079 6.93956 3.02588 6.89921C3.00096 6.85885 2.98678 6.81279 2.98468 6.76541C2.98258 6.71803 2.99263 6.6709 3.01387 6.6285ZM12.5764 6.6285L13.2188 5.34375L11.9874 4.85128C11.9358 4.83064 11.8915 4.79497 11.8603 4.74889C11.8291 4.70282 11.8125 4.64845 11.8125 4.59281V4.49691C11.8125 4.42313 11.8418 4.35238 11.894 4.30022C11.9461 4.24806 12.0169 4.21875 12.0907 4.21875H13.5L13.7365 3.0375C13.7491 2.97444 13.7832 2.9177 13.833 2.87693C13.8827 2.83616 13.945 2.81389 14.0093 2.81391H14.1106C14.1759 2.81389 14.2392 2.83688 14.2893 2.87884C14.3394 2.92081 14.3731 2.97907 14.3845 3.04341L14.5952 4.22606L16.0332 4.21875C16.0699 4.21864 16.1062 4.22576 16.14 4.2397C16.1739 4.25365 16.2047 4.27414 16.2306 4.3C16.2566 4.32587 16.2772 4.3566 16.2912 4.39044C16.3053 4.42428 16.3125 4.46055 16.3125 4.49719V4.59197C16.3125 4.64761 16.2959 4.70197 16.2647 4.74805C16.2335 4.79413 16.1892 4.82979 16.1376 4.85044L14.9062 5.34375L15.5486 6.6285C15.5699 6.6709 15.5799 6.71803 15.5778 6.76541C15.5757 6.81279 15.5615 6.85885 15.5366 6.89921C15.5117 6.93956 15.4769 6.97288 15.4355 6.99599C15.3941 7.0191 15.3474 7.03124 15.3 7.03125C15.228 7.03131 15.1588 7.00337 15.1071 6.95334L14.0625 5.94647L13.0182 6.95334C12.9664 7.00344 12.8971 7.03138 12.825 7.03125C12.7776 7.03124 12.7309 7.0191 12.6895 6.99599C12.6481 6.97288 12.6133 6.93956 12.5884 6.89921C12.5635 6.85885 12.5493 6.81279 12.5472 6.76541C12.5451 6.71803 12.5551 6.6709 12.5764 6.6285ZM7.4925 4.92384L8.15625 3.375L6.67462 2.88113C6.61467 2.86112 6.56252 2.82276 6.52557 2.77147C6.48863 2.72019 6.46875 2.65858 6.46875 2.59537V2.511C6.46877 2.43848 6.49495 2.36841 6.54248 2.31364C6.59001 2.25888 6.65571 2.2231 6.7275 2.21288L8.4375 1.96875L8.93138 0.487125C8.95138 0.427167 8.98974 0.375023 9.04103 0.338074C9.09231 0.301126 9.15392 0.281246 9.21712 0.28125H9.34538C9.40858 0.281246 9.47019 0.301126 9.52147 0.338074C9.57276 0.375023 9.61112 0.427167 9.63112 0.487125L10.125 1.96875L11.835 2.21316C11.9068 2.22338 11.9725 2.25916 12.02 2.31393C12.0675 2.36869 12.0937 2.43877 12.0938 2.51128V2.59566C12.0938 2.65886 12.0739 2.72047 12.0369 2.77175C12 2.82304 11.9478 2.8614 11.8879 2.88141L10.4062 3.375L11.07 4.92384C11.0896 4.96965 11.0976 5.01962 11.0932 5.06926C11.0888 5.11891 11.0721 5.16668 11.0447 5.20829C11.0172 5.24991 10.9799 5.28407 10.936 5.30771C10.8921 5.33135 10.8431 5.34373 10.7933 5.34375C10.7248 5.34377 10.6585 5.32045 10.6051 5.27766L9.28125 4.21875L7.95741 5.27766C7.90403 5.32045 7.83766 5.34377 7.76925 5.34375C7.71941 5.34373 7.67035 5.33135 7.62647 5.30771C7.5826 5.28407 7.54527 5.24991 7.51784 5.20829C7.49042 5.16668 7.47374 5.11891 7.46932 5.06926C7.4649 5.01962 7.47286 4.96965 7.4925 4.92384Z" fill="#54A630"/>
</svg>
