<svg width="20" height="20" viewBox="0 0 20 20" fill="none" xmlns="http://www.w3.org/2000/svg">
<path d="M19.7473 16.9825L16.4102 13.67C17.7056 12.0537 18.3329 10.0021 18.1631 7.93721C17.9934 5.87227 17.0396 3.95088 15.4978 2.56813C13.9559 1.18538 11.9433 0.446361 9.87376 0.503034C7.80419 0.559708 5.83498 1.40777 4.37103 2.87283C2.90708 4.33789 2.05966 6.3086 2.00303 8.37974C1.9464 10.4509 2.68486 12.465 4.06656 14.008C5.44826 15.551 7.36819 16.5056 9.43156 16.6754C11.4949 16.8453 13.5449 16.2175 15.16 14.9212L18.47 18.2337C18.5536 18.3181 18.6531 18.3851 18.7627 18.4308C18.8723 18.4765 18.9899 18.5 19.1086 18.5C19.2274 18.5 19.3449 18.4765 19.4546 18.4308C19.5642 18.3851 19.6636 18.3181 19.7473 18.2337C19.9094 18.0659 20 17.8416 20 17.6081C20 17.3747 19.9094 17.1504 19.7473 16.9825ZM10.114 14.9212C8.8687 14.9212 7.65139 14.5516 6.61597 13.8593C5.58056 13.1669 4.77355 12.1828 4.297 11.0315C3.82045 9.88009 3.69577 8.61316 3.93871 7.39088C4.18165 6.1686 4.78131 5.04586 5.66186 4.16464C6.54241 3.28343 7.66429 2.68331 8.88565 2.44018C10.107 2.19706 11.373 2.32184 12.5235 2.79875C13.674 3.27566 14.6573 4.08328 15.3491 5.11948C16.041 6.15568 16.4102 7.37392 16.4102 8.62015C16.4102 10.2913 15.7469 11.894 14.5661 13.0757C13.3853 14.2573 11.7839 14.9212 10.114 14.9212Z" fill="#B8B8B8"/>
</svg>
