<svg width="33" height="33" viewBox="0 0 33 33" fill="none" xmlns="http://www.w3.org/2000/svg">
<path fill-rule="evenodd" clip-rule="evenodd" d="M16.844 3.49913C18.2651 2.14678 19.8872 1.54154 21.7758 1.88672C23.87 2.26973 25.3238 3.4944 25.9782 5.5371C26.628 7.56088 26.254 9.46646 24.7769 11.0079C23.3711 12.4715 21.938 13.9074 20.5049 15.3433C19.4933 16.3569 18.4818 17.3705 17.4798 18.3938C16.9749 18.9092 16.6243 18.8336 16.1475 18.3418C14.8231 16.9833 13.4866 15.6385 12.15 14.2936L12.15 14.2935C11.1279 13.2651 10.1057 12.2365 9.08886 11.2018C6.94321 9.02198 6.85907 5.66004 8.87383 3.50386C10.8839 1.35713 14.1468 1.21055 16.4514 3.17286C16.5542 3.2627 16.6617 3.35254 16.844 3.49913ZM9.53799 19.9766L9.53709 19.9755L9.53701 19.9754C8.88913 19.1735 8.28669 18.4278 7.68638 17.6799C6.94779 16.7579 6.95714 15.8075 7.69573 15.1786C8.46237 14.526 9.43001 14.6915 10.192 15.6183C10.5435 16.0445 10.8946 16.4713 11.2459 16.8983L11.2462 16.8986C12.2122 18.0728 13.1791 19.248 14.156 20.413C14.9928 21.4107 15.4369 22.5266 15.4088 23.8553C15.3839 25.0882 15.3852 26.3211 15.3866 27.5549C15.3875 28.4032 15.3884 29.252 15.3808 30.1016C15.3714 31.2885 15.334 31.3168 14.2028 31.3216C13.4974 31.3248 12.792 31.323 12.0868 31.3212H12.0863C10.7541 31.3177 9.42257 31.3143 8.09307 31.3452C7.27034 31.3641 7.03194 31.0331 7.12543 30.2766C7.15658 30.0226 7.17337 29.765 7.19015 29.5075C7.21618 29.1081 7.24219 28.7089 7.32176 28.3237C7.4807 27.5672 7.19555 27.0281 6.75614 26.4607C6.16207 25.689 5.58266 24.9055 5.00316 24.1219L5.00315 24.1218C4.31498 23.1912 3.62669 22.2605 2.91361 21.3492C2.03478 20.2286 1.71223 19.0228 1.85247 17.609C1.99303 16.2145 2.08958 14.8141 2.18619 13.413C2.24059 12.6239 2.29502 11.8346 2.35733 11.0459C2.44614 9.91579 3.01177 9.27272 3.97007 9.16869C5.02186 9.05521 5.7324 9.66045 5.72772 10.7338C5.71837 12.4455 5.70435 14.1572 5.63423 15.8642C5.60151 16.7295 5.76044 17.4719 6.32607 18.1528C6.80525 18.7294 7.22602 19.3577 7.64644 19.9855C7.70179 20.0682 7.75713 20.1508 7.8126 20.2333C8.42497 21.1412 9.30847 21.2074 10.5052 21.1743C10.1692 20.7579 9.84837 20.3608 9.53799 19.9766ZM25.3846 20.3277C24.7629 21.1646 23.8981 21.2025 22.8416 21.1788C22.9241 21.0564 22.99 20.9522 23.0479 20.8608C23.1376 20.7191 23.208 20.608 23.2904 20.5074C23.6193 20.1002 23.9492 19.6958 24.2787 19.2917C24.7032 18.7713 25.1272 18.2514 25.5482 17.727C26.2961 16.7908 26.2961 15.7742 25.5576 15.1453C24.819 14.5164 23.842 14.6914 23.0566 15.6323C22.7022 16.058 22.3433 16.4809 21.9842 16.904C20.9271 18.1495 19.8687 19.3966 18.9196 20.7202C18.354 21.5051 17.9426 22.569 17.8912 23.5336C17.8044 25.1168 17.8392 26.7045 17.8739 28.292C17.8897 29.0135 17.9055 29.735 17.9099 30.4561C17.9146 31.0424 18.1343 31.3356 18.77 31.3308C20.9718 31.3025 23.1782 31.3025 25.3846 31.3214C25.997 31.3261 26.1886 31.0471 26.1372 30.4844C26.1188 30.2838 26.097 30.0832 26.0751 29.8826C26.0134 29.3172 25.9517 28.7518 25.9689 28.1864C25.9876 27.6852 26.0951 27.1036 26.3756 26.7111C26.9682 25.8762 27.5848 25.0589 28.2013 24.242C28.9707 23.2224 29.7397 22.2032 30.4612 21.1504C30.938 20.4554 31.3961 19.5475 31.3774 18.7484C31.3233 16.3186 31.1209 13.8889 30.9188 11.4625C30.8939 11.1643 30.8691 10.8662 30.8445 10.5681C30.7697 9.67445 29.8816 9.08339 28.9233 9.15432C28.0491 9.22052 27.577 9.77375 27.5489 10.7762C27.5349 11.2017 27.5489 11.632 27.5676 12.0576C27.792 17.0225 27.792 17.0225 25.4828 20.1858C25.4578 20.2174 25.4371 20.2489 25.4163 20.2804C25.4059 20.2962 25.3955 20.3119 25.3846 20.3277Z" fill="#54A630"/>
</svg>
