<svg width="25" height="24" viewBox="0 0 25 24" fill="none" xmlns="http://www.w3.org/2000/svg">
<path d="M12.5117 9.15474C11.8109 9.15474 11.1547 9.42661 10.6578 9.92349C10.1633 10.4204 9.88907 11.0766 9.88907 11.7774C9.88907 12.4782 10.1633 13.1344 10.6578 13.6313C11.1547 14.1258 11.8109 14.4001 12.5117 14.4001C13.2125 14.4001 13.8688 14.1258 14.3656 13.6313C14.8602 13.1344 15.1344 12.4782 15.1344 11.7774C15.1344 11.0766 14.8602 10.4204 14.3656 9.92349C14.1229 9.67893 13.8341 9.48504 13.5158 9.35307C13.1976 9.2211 12.8563 9.15368 12.5117 9.15474ZM22.175 14.6743L20.6422 13.3641C20.7149 12.9188 20.7524 12.4641 20.7524 12.0118C20.7524 11.5594 20.7149 11.1024 20.6422 10.6594L22.175 9.34927C22.2908 9.25014 22.3737 9.11812 22.4126 8.97075C22.4515 8.82338 22.4447 8.66765 22.393 8.52427L22.3719 8.46333C21.95 7.2837 21.318 6.19026 20.5063 5.23599L20.4641 5.18677C20.3655 5.07087 20.2341 4.98756 20.0873 4.94782C19.9404 4.90807 19.785 4.91375 19.6414 4.96411L17.7383 5.64146C17.0352 5.06489 16.2524 4.61021 15.4039 4.2938L15.0359 2.30396C15.0082 2.15405 14.9355 2.01615 14.8275 1.90856C14.7195 1.80097 14.5813 1.72879 14.4313 1.70161L14.368 1.68989C13.1492 1.46958 11.8649 1.46958 10.6461 1.68989L10.5828 1.70161C10.4328 1.72879 10.2946 1.80097 10.1866 1.90856C10.0786 2.01615 10.0059 2.15405 9.97814 2.30396L9.60782 4.30317C8.76742 4.6221 7.98453 5.07569 7.28986 5.64614L5.37267 4.96411C5.22915 4.91335 5.07358 4.90746 4.92664 4.94724C4.7797 4.98701 4.64834 5.07055 4.55001 5.18677L4.50782 5.23599C3.69757 6.19128 3.06565 7.28444 2.6422 8.46333L2.62111 8.52427C2.51564 8.81724 2.60236 9.14536 2.83907 9.34927L4.39064 10.6735C4.31798 11.1141 4.28282 11.5641 4.28282 12.0094C4.28282 12.4594 4.31798 12.9094 4.39064 13.3454L2.84376 14.6696C2.72797 14.7687 2.6451 14.9007 2.60616 15.0481C2.56723 15.1955 2.57407 15.3512 2.62579 15.4946L2.64689 15.5555C3.07111 16.7344 3.69689 17.8243 4.51251 18.7829L4.5547 18.8321C4.65326 18.948 4.78463 19.0313 4.93148 19.071C5.07834 19.1108 5.23379 19.1051 5.37735 19.0547L7.29454 18.3727C7.99298 18.9469 8.7711 19.4016 9.61251 19.7157L9.98282 21.7149C10.0106 21.8648 10.0833 22.0027 10.1913 22.1103C10.2993 22.2179 10.4375 22.2901 10.5875 22.3172L10.6508 22.329C11.8815 22.5505 13.1419 22.5505 14.3727 22.329L14.4359 22.3172C14.586 22.2901 14.7241 22.2179 14.8322 22.1103C14.9402 22.0027 15.0129 21.8648 15.0406 21.7149L15.4086 19.725C16.257 19.4063 17.0399 18.954 17.743 18.3774L19.6461 19.0547C19.7896 19.1055 19.9452 19.1114 20.0921 19.0716C20.2391 19.0318 20.3704 18.9483 20.4688 18.8321L20.5109 18.7829C21.3266 17.8196 21.9524 16.7344 22.3766 15.5555L22.3977 15.4946C22.4984 15.204 22.4117 14.8782 22.175 14.6743ZM12.5117 15.8977C10.2359 15.8977 8.39142 14.0532 8.39142 11.7774C8.39142 9.50161 10.2359 7.65708 12.5117 7.65708C14.7875 7.65708 16.632 9.50161 16.632 11.7774C16.632 14.0532 14.7875 15.8977 12.5117 15.8977Z" fill="#3C3C3C"/>
</svg>
