<svg width="18" height="18" viewBox="0 0 18 18" fill="none" xmlns="http://www.w3.org/2000/svg">
<path d="M14.3333 12.7229C13.6578 12.7229 13.0533 12.994 12.5911 13.4187L6.25333 9.66867C6.29778 9.46084 6.33333 9.25301 6.33333 9.03614C6.33333 8.81928 6.29778 8.61145 6.25333 8.40361L12.52 4.68976C13 5.14157 13.6311 5.42169 14.3333 5.42169C15.8089 5.42169 17 4.21084 17 2.71084C17 1.21084 15.8089 0 14.3333 0C12.8578 0 11.6667 1.21084 11.6667 2.71084C11.6667 2.92771 11.7022 3.13554 11.7467 3.34337L5.48 7.05723C5 6.60542 4.36889 6.3253 3.66667 6.3253C2.19111 6.3253 1 7.53614 1 9.03614C1 10.5361 2.19111 11.747 3.66667 11.747C4.36889 11.747 5 11.4669 5.48 11.0151L11.8089 14.7741C11.7644 14.9639 11.7378 15.1627 11.7378 15.3614C11.7378 16.8163 12.9022 18 14.3333 18C15.7644 18 16.9289 16.8163 16.9289 15.3614C16.9289 13.9066 15.7644 12.7229 14.3333 12.7229Z" fill="#55A630"/>
</svg>
