<svg width="29" height="28" viewBox="0 0 29 28" fill="none" xmlns="http://www.w3.org/2000/svg">
<g clip-path="url(#clip0_20_1273)">
<path d="M16.6622 0.867453C16.3451 0.716208 15.9715 0.756297 15.6982 0.976786L6.8349 8.06706H2.60006C1.59601 8.06706 0.777832 8.88524 0.777832 9.88929V17.1782C0.777832 18.184 1.59601 19.0004 2.60006 19.0004H6.8349L15.6964 26.0907C15.8622 26.2219 16.0645 26.2893 16.2667 26.2893C16.4016 26.2893 16.5364 26.2583 16.6622 26.1982C16.9774 26.0469 17.1778 25.7281 17.1778 25.3782V1.68928C17.1778 1.33941 16.9774 1.02052 16.6622 0.867453Z" fill="white"/>
<path d="M21.79 7.09032C21.431 6.73681 20.8552 6.74227 20.5016 7.09761C20.1481 7.45659 20.1518 8.03241 20.5089 8.38774C21.8865 9.74712 22.6446 11.5748 22.6446 13.5337C22.6446 15.4926 21.8865 17.3203 20.5089 18.6797C20.1518 19.0314 20.1481 19.609 20.5016 19.968C20.6802 20.1484 20.9153 20.2377 21.1485 20.2377C21.38 20.2377 21.6114 20.1502 21.79 19.9734C23.5174 18.2733 24.4668 15.9846 24.4668 13.5337C24.4668 11.0828 23.5174 8.7941 21.79 7.09032Z" fill="white"/>
<path d="M24.3613 4.52282C24.0024 4.16749 23.4265 4.17113 23.0712 4.52829C22.7177 4.88545 22.7213 5.46309 23.0767 5.8166C25.1485 7.87025 26.2892 10.6109 26.2892 13.5337C26.2892 16.4566 25.1485 19.1954 23.0767 21.249C22.7213 21.6044 22.7177 22.182 23.0712 22.5392C23.2516 22.7177 23.4848 22.807 23.7181 22.807C23.9495 22.807 24.1828 22.7196 24.3613 22.5428C26.7812 20.1466 28.1115 16.9467 28.1115 13.5337C28.1115 10.1207 26.7812 6.92087 24.3613 4.52282Z" fill="white"/>
</g>
<defs>
<clipPath id="clip0_20_1273">
<rect width="27.3333" height="27.3333" fill="white" transform="translate(0.777832 0.222229)"/>
</clipPath>
</defs>
</svg>
