<svg width="41" height="33" viewBox="0 0 41 33" fill="none" xmlns="http://www.w3.org/2000/svg">
<path fill-rule="evenodd" clip-rule="evenodd" d="M10.6739 29.4492C10.577 29.2878 10.4882 29.1183 10.3994 28.9488C9.4041 26.9164 9.4517 24.6155 9.49926 22.3159C9.51612 21.501 9.53298 20.6862 9.50341 19.8835C9.49534 19.5687 9.47112 19.2296 9.30967 18.9552C9.0805 18.5601 8.63471 18.3583 8.21466 18.1683L8.18761 18.156C5.97578 17.147 4.04649 15.5244 2.61768 13.5628C1.092 11.4721 0.0991037 8.88087 0.365492 6.30578C0.63188 3.7307 2.33515 1.22827 4.81336 0.477536C5.52373 0.267654 6.42784 0.259582 6.83953 0.873082C7.03326 1.16369 7.07363 1.51887 7.08977 1.86598C7.17049 3.16563 7.12206 4.47336 6.94447 5.75686L6.94332 5.76417C6.91946 5.91535 6.8945 6.0736 6.79917 6.19277C6.67808 6.34614 6.4682 6.41072 6.27446 6.45109C5.36229 6.6206 4.40975 6.49145 3.57829 6.08783C3.27962 7.80724 3.73974 9.60738 4.6277 11.1088C5.51566 12.6103 6.81531 13.8373 8.24412 14.8463C9.19666 15.5244 10.3187 16.1298 11.465 15.9523C12.5144 15.7908 13.3539 15.0078 14.0885 14.2409C16.2035 12.0049 18.1489 9.19569 17.8906 6.12819C17.2206 6.4753 16.4537 6.83856 15.7433 6.58024C14.6536 6.1847 14.5244 4.71553 14.5809 3.56118L14.6778 1.76911L14.6781 1.76358C14.6941 1.45848 14.711 1.13787 14.8635 0.873082C15.2913 0.08199 16.4779 0.186931 17.2932 0.582477C19.4889 1.67225 20.8532 4.09395 21.0388 6.53988C21.2245 8.98581 20.3284 11.4317 18.94 13.4579C17.5516 15.4841 15.6949 17.1389 13.7656 18.6565L13.7343 18.6815C13.5021 18.867 13.2663 19.0554 13.1118 19.3104C12.8944 19.6806 12.8858 20.1392 12.8777 20.566L12.8777 20.5696C12.8736 21.0994 12.8716 21.6291 12.8696 22.1599V22.1599C12.8676 22.6887 12.8655 23.2184 12.8615 23.7502C12.8534 25.4776 12.918 27.3908 14.1127 28.642C14.928 29.4896 16.1712 29.8529 17.3417 29.7156C18.5122 29.5784 19.5939 28.973 20.4334 28.1496C17.5596 24.9368 16.6717 20.0853 18.2135 16.0653C19.7553 12.0452 23.6704 9.03424 27.9568 8.57412C27.973 8.43689 27.9891 8.30773 28.0133 8.1705C27.9003 8.16243 27.7853 8.15637 27.6703 8.15032C27.5552 8.14426 27.4402 8.13821 27.3272 8.13014V6.19277H31.2423V8.13821C30.9678 8.15435 30.6934 8.1705 30.4108 8.17857C30.4069 8.26436 30.4011 8.35014 30.3953 8.43684L30.3953 8.43718C30.389 8.52985 30.3827 8.62356 30.3785 8.71942C34.6973 9.17147 38.6204 12.2632 40.0896 16.3478C40.9049 18.6161 40.9291 21.1347 40.2833 23.4434C39.6375 25.736 38.2895 27.8671 36.4247 29.3685C34.5923 30.8458 32.2755 31.7095 29.9346 31.8629C28.2313 31.9759 26.5038 31.7176 24.9297 31.0557C24.8677 31.0298 24.8054 31.0034 24.7428 30.9768L24.7422 30.9766C24.12 30.7127 23.4688 30.4364 22.8309 30.6197C22.4758 30.7222 22.1843 30.9574 21.8976 31.1888C21.8454 31.2309 21.7934 31.2729 21.7411 31.314C20.0056 32.6782 17.6646 33.2594 15.5012 32.8235C13.4992 32.428 11.7072 31.1687 10.6739 29.4492ZM29.0872 29.3363C34.0715 29.3363 38.1121 25.2957 38.1121 20.3114C38.1121 15.3271 34.0715 11.2865 29.0872 11.2865C24.1029 11.2865 20.0623 15.3271 20.0623 20.3114C20.0623 25.2957 24.1029 29.3363 29.0872 29.3363ZM29.2482 22.4504L32.5094 17.8653C32.8323 17.4052 32.2672 16.8482 31.8152 17.1711L27.2301 20.4323C26.9798 20.6099 26.9476 20.9732 27.1655 21.1911L28.4894 22.515C28.7073 22.733 29.0706 22.7007 29.2482 22.4504Z" fill="#54A630"/>
</svg>
