<svg width="16" height="5" viewBox="0 0 16 5" fill="none" xmlns="http://www.w3.org/2000/svg">
<path d="M11.9995 2.44824C11.9995 3.54824 12.8995 4.44824 13.9995 4.44824C15.0995 4.44824 15.9995 3.54824 15.9995 2.44824C15.9995 1.34824 15.0995 0.448242 13.9995 0.448242C12.8995 0.448242 11.9995 1.34824 11.9995 2.44824ZM9.99951 2.44824C9.99951 1.34824 9.09951 0.448242 7.99951 0.448242C6.89951 0.448242 5.99951 1.34824 5.99951 2.44824C5.99951 3.54824 6.89951 4.44824 7.99951 4.44824C9.09951 4.44824 9.99951 3.54824 9.99951 2.44824ZM3.99951 2.44824C3.99951 1.34824 3.09951 0.448242 1.99951 0.448242C0.899511 0.448242 -0.000488321 1.34824 -0.000488369 2.44824C-0.000488417 3.54824 0.899511 4.44824 1.99951 4.44824C3.09951 4.44824 3.99951 3.54824 3.99951 2.44824Z" fill="#3C3D3F"/>
</svg>
